<?xml version="1.0" encoding="utf-8"?>

<!DOCTYPE svg PUBLIC "-//W3C//DTD SVG 1.1//EN" "http://www.w3.org/Graphics/SVG/1.1/DTD/svg11.dtd">
<!-- Uploaded to: SVG Repo, www.svgrepo.com, Generator: SVG Repo Mixer Tools -->
<svg height="800px" width="800px" version="1.1" id="_x32_" xmlns="http://www.w3.org/2000/svg" xmlns:xlink="http://www.w3.org/1999/xlink" 
	 viewBox="0 0 512 512"  xml:space="preserve">
<style type="text/css">
	.st0{fill:#000000;}
</style>
<g>
	<path class="st0" d="M361.906,306.567c-13.353-20.761-20.718-48.103-20.718-77.012c0-28.902,7.365-56.252,20.718-77.004
		c6.738-10.45,14.616-18.713,23.289-24.579c-4.446-0.54-9.152-1.185-14.068-1.943c-23.603-3.617-52.147-9.658-82.19-18.303
		c-22.539-6.467-45.967-14.398-68.994-23.768c-33.721-13.702-66.544-30.54-94.766-49.758C95.91,26.084,55.364,45.616,27.221,83.783
		c-30.514,41.382-35.769,90.199-13.762,114.272c20.325,13.832,41.225,26.208,62.327,37.364
		c32.108,16.952,64.723,31.036,96.693,42.777c47.972,17.605,94.453,29.956,136.036,38.131c20.795,4.106,40.362,7.13,58.518,9.196
		c4.21,0.488,8.341,0.906,12.411,1.282C373.028,321.427,367.118,314.655,361.906,306.567z"/>
	<path class="st0" d="M403.166,291.994c-16.42-9.265-28.152-33.721-28.152-62.44c0-36.676,19.14-66.397,42.742-66.397
		c23.62,0,42.768,29.721,42.768,66.397c0,22.216-7.034,41.852-17.815,53.916c7.278,4.27,14.12,9.631,20.482,15.749
		c11.383-17.91,18.417-42.506,18.417-69.664c0-54.762-28.588-99.151-63.852-99.151c-35.255,0-63.826,44.389-63.826,99.151
		c0,51.136,24.918,93.224,56.923,98.584C412.005,310.175,408.378,298.313,403.166,291.994z"/>
	<path class="st0" d="M433.707,287.217c-16.378-6.824-24.562,5.456-24.562,5.456c8.612,3.295,16.377,17.746,13.649,45.026
		c-2.727,27.289-24.56,75.043-4.096,111.884c20.464,36.842,64.226,43.126,87.332,0C526.495,411.374,492.381,314.498,433.707,287.217
		z M445.508,426.06c-8.794,0-15.924-7.13-15.924-15.933c0-8.786,7.129-15.915,15.924-15.915c8.794,0,15.915,7.129,15.915,15.915
		C461.423,418.93,454.302,426.06,445.508,426.06z"/>
</g>
</svg>