<?xml version="1.0" encoding="utf-8"?>
<!-- Uploaded to: SVG Repo, www.svgrepo.com, Generator: SVG Repo Mixer Tools -->
<svg width="800px" height="800px" viewBox="-18.99 0 360.445 360.445" xmlns="http://www.w3.org/2000/svg"><defs><style>.a{fill:#ffffff;}.b{fill:#908b8a;}.c{fill:#211715;}.d{fill:#a0a0a0;}.e{fill:#5394cf;}</style></defs><path class="a" d="M249.674,87.657a7.949,7.949,0,0,1,6.36-1.861,7.507,7.507,0,0,1,5.4,3.588,10.609,10.609,0,0,1,1.111,4.269A31.8,31.8,0,0,1,259.3,110.51a20.223,20.223,0,0,1-5.226,6.86c-2.136,1.7-4.283,2.517-7.825.726a47.766,47.766,0,0,1-2.071,7.472c-1.677,4.482-10.458,19.15-21.871,26.14.013,3.6.207,7.353,1.408,10.327,2.58,6.39,16.52,14.43,17.48,14.85,0,0-7.9,29.916-45.234,29.916s-42.246-29.916-42.246-29.916c.96-.42,12.71-7.34,15.3-13.73,1.215-3,1.4-6.769,1.41-10.376a44.778,44.778,0,0,1-14.317-11.6,53.863,53.863,0,0,1-10.857-21.89c-3.286,1.312-5.739-.384-7.66-1.916a20.223,20.223,0,0,1-5.226-6.86,31.8,31.8,0,0,1-3.243-16.857,10.609,10.609,0,0,1,1.111-4.269,7.507,7.507,0,0,1,5.4-3.588,7.949,7.949,0,0,1,6.36,1.861S138.405,35.69,191.96,35.69C253.516,35.69,249.674,87.657,249.674,87.657Z"/><path class="b" d="M154.023,17.182c4.424-5.57,11.826-9.937,19.271-11.826A78.057,78.057,0,0,1,199.286,2.54c18.078,1.563,35.766,10.028,47.126,24.176,12.862,16.019,14.984,41.251,8.611,59.006a7.87,7.87,0,0,0-5.311,1.9c-1.083-6.528-4.253-16.018-6.572-22.342a5.8,5.8,0,0,0-1.769-2.829,8.457,8.457,0,0,0-3.693-1.269c-8.294-1.4-13.031-2.411-21.5-2.827-9.114-.448-15.694,3.846-24.445,1.778-5.141-1.215-16.635-7.045-20.555-9.951-1.056-.771-2-1.518-2.881-2.1-1.05-.7-2.434-1.374-3.545-.782a3.9,3.9,0,0,0-.618.437c-.59.48-1.458,1.17-2.008,1.664-12.252,10.4-19.174,24.96-18.744,39.471v.047l-1.4-1.263a7.949,7.949,0,0,0-6.36-1.861,7.671,7.671,0,0,0-2.366.762c-4.221-13.012-3.572-31.866-.636-41.757l.79-2.661c3.051-9.079,8.064-15.765,13.878-19.058Z"/><path class="a" d="M320.062,357.83C315.173,290.275,307.7,231.406,301.516,210.8a24.11,24.11,0,0,0-7.926-12.148,64.082,64.082,0,0,0-10.971-6.569c-11.131-5.377-28.954-12.524-40.362-17.283l-10.908-4.032c-1.566,8.8-4.24,20.281-7.166,28.254-2.389,6.506-10.223,28.667-15.556,41.333a283.941,283.941,0,0,1-13.56,27.829c-12.962-29.513-28.678-60.205-32.769-97.2l-11.893,4.257-1.363.567C137.564,180.576,120,187.6,109.305,192.768a33.648,33.648,0,0,0-9.345,6.31,30.1,30.1,0,0,0-7.037,10.167c-7.99,20.864-8.821,30.982-17.343,52.644-3.68-8.743-7.072-17.152-10.849-26.417-11.214,5.908-29.081,14.091-40.292,16.521,5.588,17.894,11.2,37.143,19.072,55.063,5.472,12.45,12.964,24.054,26.116,27.515a33.586,33.586,0,0,0,29.037-5.333c7.105-5.192,14.93-15.709,19.852-21.926l.451-.545c.6,7.53.451,14.8.451,22.77,0,9.95-.59,17.3-.6,28.59Z"/><path class="a" d="M24.965,240.741c4.083-1.5,23.765-8.757,31.915-12.942.88,1.77,2.68,5.95,3.9,8.51l.514.938c-9.832,4.983-23.053,10.912-32.98,13.758l-.364-.836c-1.24-3.08-3.07-8.37-3.47-9.25Z"/><path class="c" d="M154.925,178.958a28.765,28.765,0,0,0,3.958-2.421,58.666,58.666,0,0,0,6.77-5.238,21.9,21.9,0,0,0,5.235-6.48c1.767-3.73,1.916-8.029,1.936-12.084.014-3.089-4.786-3.093-4.8,0a44.226,44.226,0,0,1-.29,5.754,15.246,15.246,0,0,1-1.217,4.36,20.156,20.156,0,0,1-4.721,5.471,51.815,51.815,0,0,1-5.752,4.351,26.919,26.919,0,0,1-3.542,2.142,2.419,2.419,0,0,0-.861,3.284,2.458,2.458,0,0,0,3.284.861Z"/><path class="c" d="M219.914,152.705c.074,4.05.3,8.588,2.552,12.1a28.387,28.387,0,0,0,6.077,6.416,78.023,78.023,0,0,0,7.328,5.294,33.853,33.853,0,0,0,4.111,2.441,2.472,2.472,0,0,0,3.284-.861,2.42,2.42,0,0,0-.861-3.284,31.681,31.681,0,0,1-3.711-2.185,70.746,70.746,0,0,1-6.292-4.423,43.082,43.082,0,0,1-3.307-2.91,20.757,20.757,0,0,1-2.218-2.514,11.154,11.154,0,0,1-.923-1.572c.262.55-.188-.519-.2-.563a16.152,16.152,0,0,1-.442-1.587,30.91,30.91,0,0,1-.595-6.354c-.056-3.085-4.857-3.095-4.8,0Z"/><path class="a" d="M229.166,164.586a24.538,24.538,0,0,0-5.076-6.39c-3.861,5.19-12.676,11.671-23.24,15.921a5.99,5.99,0,0,0-2.054,1.162c-.253.471.239.885.47,1.255a16.691,16.691,0,0,0,1.658,1.741c-3.32,0-5.788.013-8.911.015a16.518,16.518,0,0,0,1.675-1.756c.232-.37.724-.784.471-1.255a6,6,0,0,0-2.054-1.162c-10.565-4.25-19.38-10.731-23.24-15.921-3.482,3.2-4.792,5.74-6.884,9.776,3.555,38.346,19.773,69.9,33.086,100.213a283.941,283.941,0,0,0,13.56-27.829c5.333-12.666,13.167-34.827,15.556-41.333,3.1-8.451,5.92-20.847,7.436-29.809C230.689,167.435,229.939,165.941,229.166,164.586Z"/><path class="a" d="M153.071,280.912l-1.428-2.767c-4.1-6.828-6.424-18.651-7.283-24.789-1.046-7.472,1.7-23.58,3.187-29.643,1.365,2.428,7.374,16.331,9.046,20.255,3.177,7.457,8.626,17.6,6.316,25.832-1.745,6.218-4.567,7.02-8.08,8.876-3.749,1.98-7.208.86-10.729,2.592-2.606,1.283-3.108,3.744-2.771,6.165.439,3.157,3.137,6.592,6.676,5.786,1.614-.368,2.91-1.525,4.349-2.34,1.911-1.082,4.279-2.02,6.269-2.948,4.551-2.124,8.826-4.431,11.607-8.724,3-4.627,4.773-9.845,4.172-15.325-2.048-18.662-14.781-34.452-20.483-51.207-.5-8.563,2.687-28.5,7.486-38.763,0,0,.437-.5,1.078-1.251q-.516-4.278-.815-8.67c-6.054,2.72-13.531,11.888-15.79,24.787-1.248,7.121-2.911,14.472-4.4,22.911-5.585,13.9-7.62,32.834-7,42.069.6,8.978,3.085,20.4,7.8,27.758l1.347,3.062Z"/><path class="a" d="M252.384,247.717c.589-5.152-1.037-10.831-5.676-13.261,4.314-23.468,2.832-34.992-.081-48.211-1.714-7.779-7.246-18.2-14.226-22.209-.3,2.327-.756,5.182-1.33,8.32,1.612,1.611,4.056,7.222,4.778,9.889,5.069,18.79,5.584,30.782,2.474,51.1-5.573,1.228-7.9,6.555-8.393,8.618-1.316,5.544-.872,12.741,4.131,16.317a9.618,9.618,0,0,0,3.823,1.614c7.9,1.5,13.042-4.277,14.3-10.874C252.267,248.592,252.334,248.156,252.384,247.717Z"/><path class="d" d="M167.013,291.384a4.891,4.891,0,0,0-2.585-4l-2.411-1.14c-1.1.593-2.238,1.144-3.394,1.684-1.466.684-3.136,1.373-4.678,2.12a18.938,18.938,0,0,0,2.252,4.05,5.774,5.774,0,0,0,3.519,2.207,6.675,6.675,0,0,0,2.65-.247c1.8-.474,3.65-1.418,4.425-3.114A3.152,3.152,0,0,0,167.013,291.384Z"/><path class="d" d="M141.245,286.535a5.142,5.142,0,0,1,2.855-5.267,17.312,17.312,0,0,1,6.043-1.286,26.245,26.245,0,0,1,2.5,10.741c-.1.048-.2.1-.293.156-1.439.815-2.735,1.972-4.349,2.34-3.539.806-6.237-2.629-6.676-5.786C141.287,287.133,141.258,286.833,141.245,286.535Z"/><path class="e" d="M183.554,235.958l.009-.128c2.105-17.254,5-38.413,5-39.017a13.3,13.3,0,0,0-.517-3.175c-.121-.483-.242-.949-.345-1.432-.642-2.746-1.051-4.654-1.633-7.673.828-.862,1.646-1.728,2.433-2.592,1.47-1.613,2.647-2.8,3.511-3.648,3.121,0,5.588-.013,8.906-.018.866.852,2.05,2.04,3.531,3.666,1.019,1.118,2.089,2.239,3.165,3.351-.332,1.331-.52,2.083-.52,2.083-.328,1.311-.69,2.674-1.173,4.158a19.374,19.374,0,0,0-1.243,5.625c-.017.984,2.8,19.549,5.453,37.32l.23,1.646c-.6,1.5-1.181,2.915-1.736,4.232a283.941,283.941,0,0,1-13.56,27.829c-3.84-8.743-7.921-17.589-11.871-26.671C183.367,238.87,183.518,236.52,183.554,235.958Z"/><path class="a" d="M214.785,192.941a103.473,103.473,0,0,0,16-25.333c-1.985-3.827-3.319-6.308-6.695-9.412-3.861,5.19-12.676,11.671-23.24,15.921a5.99,5.99,0,0,0-2.054,1.162c-.253.471.239.885.47,1.255.364.582,2.148,2.074,5.185,5.407C207.9,185.723,211.933,189.534,214.785,192.941Z"/><path class="a" d="M178.17,192.941a103.443,103.443,0,0,1-16-25.333c1.984-3.827,3.319-6.308,6.7-9.412,3.86,5.19,12.675,11.671,23.24,15.921a6,6,0,0,1,2.054,1.162c.253.471-.239.885-.471,1.255-.363.582-2.148,2.074-5.185,5.407C185.058,185.723,181.022,189.534,178.17,192.941Z"/><path class="c" d="M149.767,172.931c-13.923,5.8-28.1,11.171-41.673,17.764-8,3.884-14.558,10.2-17.749,18.6-2.922,7.7-5.372,15.539-7.662,23.442-2.561,8.843-5.245,17.623-8.531,26.229a2.419,2.419,0,0,0,1.676,2.952,2.452,2.452,0,0,0,2.952-1.676c5.637-14.76,9.173-30.167,14.484-45.031,1.425-3.99,2.8-7.866,5.483-11.215a31.033,31.033,0,0,1,9.335-7.905c6.34-3.5,13.22-6.188,19.887-8.992,7.673-3.226,15.391-6.341,23.074-9.544a2.479,2.479,0,0,0,1.676-2.952,2.415,2.415,0,0,0-2.952-1.676Z"/><path class="c" d="M241.619,177.115c13.36,5.571,26.927,10.784,39.951,17.12,6.269,3.05,12.546,6.551,15.9,12.919,2.038,3.869,2.92,8.427,3.865,12.671,2.369,10.642,4.035,21.445,5.574,32.234,2.124,14.891,3.859,29.838,5.416,44.8q2.8,26.863,4.8,53.8.272,3.584.531,7.168a2.459,2.459,0,0,0,2.4,2.4,2.42,2.42,0,0,0,2.4-2.4q-2.014-27.779-4.775-55.5c-1.589-15.769-3.384-31.521-5.543-47.223-1.576-11.464-3.291-22.937-5.682-34.263a104.36,104.36,0,0,0-2.9-11.536,27.84,27.84,0,0,0-5.763-10,35.615,35.615,0,0,0-8.676-6.5c-6.35-3.67-13.212-6.5-19.945-9.378-7.215-3.086-14.475-6.064-21.728-9.06q-2.279-.941-4.553-1.889a2.415,2.415,0,0,0-2.953,1.677,2.462,2.462,0,0,0,1.677,2.952Z"/><path class="c" d="M275.078,358.127c-.015-9.172-.558-18.332-.6-27.5-.043-10.076-.313-20.261,1.141-30.26.7-4.847,1.677-9.659,2.5-14.488q1.233-7.27,2.374-14.557,2.326-14.822,4.319-29.693,2.1-15.643,3.829-31.336a2.415,2.415,0,0,0-2.4-2.4,2.456,2.456,0,0,0-2.4,2.4q-3.1,28.6-7.553,57.037c-1.492,9.645-3.148,19.257-4.83,28.87-1.777,10.156-1.812,20.4-1.783,30.679.029,10.422.587,20.83.6,31.251,0,3.088,4.805,3.094,4.8,0Z"/><path class="c" d="M103.131,213.021q3.124,28.446,7.606,56.725c1.515,9.666,3.306,19.283,4.878,28.938,1.583,9.717,1.422,19.583,1.405,29.395-.019,10.021-.585,20.028-.6,30.048-.005,3.089,4.795,3.093,4.8,0,.015-8.816.517-17.62.591-26.435.082-9.776.286-19.637-.876-29.362-.591-4.952-1.57-9.847-2.421-14.759q-1.251-7.229-2.412-14.473-2.346-14.613-4.355-29.276-2.111-15.373-3.814-30.8a2.471,2.471,0,0,0-2.4-2.4,2.415,2.415,0,0,0-2.4,2.4Z"/><path class="c" d="M135.078,84.275c-2.512-8.98-2.876-18.6-2.07-27.854.653-7.5,2.479-15.051,6.307-21.6a26.035,26.035,0,0,1,9.192-9.671c2.675-1.542.26-5.692-2.423-4.144-8.038,4.634-12.882,13.421-15.448,22.063a78.251,78.251,0,0,0-2.689,25.519,74.973,74.973,0,0,0,2.5,16.959c.831,2.97,5.463,1.708,4.628-1.276Z"/><path class="c" d="M155.72,18.879C162.667,10.269,173.651,7,184.2,5.5A67.563,67.563,0,0,1,216,8.543a63.842,63.842,0,0,1,26.011,16.74,53.432,53.432,0,0,1,12.835,26.2,64.6,64.6,0,0,1-1.657,32.188c-.953,2.946,3.681,4.208,4.629,1.276a69.41,69.41,0,0,0,2.288-31.033c-1.5-10.511-5.418-20.752-12.124-29.051C233.711,7.2,209.74-1.886,187.337.328c-12.7,1.255-26.631,4.771-35.011,15.157a2.473,2.473,0,0,0,0,3.394,2.417,2.417,0,0,0,3.394,0Z"/><path class="c" d="M145.787,88.873a46.412,46.412,0,0,1,9-28.055,51.6,51.6,0,0,1,10.782-11.165c.456-.342,0-.177.425-.107a4.321,4.321,0,0,1,1.431.835c1.063.728,2.06,1.55,3.12,2.283,1.447,1,2.977,1.88,4.514,2.731a102.165,102.165,0,0,0,11.92,5.679A26.438,26.438,0,0,0,200.2,62.861c5.283-.654,10.39-2.321,15.764-2.114a120.975,120.975,0,0,1,15.817,1.845l4.788.825c1.133.194,2.907.263,3.679,1.269a11.779,11.779,0,0,1,1.288,3.185q.7,1.964,1.368,3.94a109.584,109.584,0,0,1,4.5,16.452,2.42,2.42,0,0,0,2.952,1.677,2.456,2.456,0,0,0,1.676-2.953,106.744,106.744,0,0,0-4.248-15.7c-.778-2.34-1.562-4.689-2.453-6.988a8.292,8.292,0,0,0-2.259-3.546,9.24,9.24,0,0,0-4.352-1.816c-5.546-1.042-11.153-2.006-16.77-2.563A54.773,54.773,0,0,0,212.717,56a67.95,67.95,0,0,0-8.576,1.349c-4.767.956-9.349,1.416-14.026-.208a80.593,80.593,0,0,1-11.792-5.429c-1.73-.937-3.452-1.908-5.085-3.008-2.194-1.477-4.288-3.725-7.056-3.984-2.792-.261-5.088,2.359-7.007,4.085a56.615,56.615,0,0,0-5.955,6.228c-7.795,9.52-12.546,21.441-12.233,33.84.077,3.084,4.878,3.095,4.8,0Z"/><path class="c" d="M189.3,199.067c4.97,0,9.939-.11,14.908-.112a2.4,2.4,0,1,0,0-4.8c-4.969,0-9.938.11-14.908.112a2.4,2.4,0,0,0,0,4.8Z"/><path class="c" d="M183.991,186.374q.643,3.247,1.4,6.47a14.579,14.579,0,0,1,.759,4.184c-.1,1.483-.371,2.972-.563,4.445q-1.331,10.174-2.659,20.349-.9,7-1.762,14.008a2.412,2.412,0,0,0,2.4,2.4,2.459,2.459,0,0,0,2.4-2.4c.991-8.115,2.041-16.223,3.1-24.329.624-4.764,1.471-9.554,1.866-14.344a13.9,13.9,0,0,0-.631-4.4c-.629-2.538-1.175-5.1-1.683-7.663a2.4,2.4,0,1,0-4.628,1.276Z"/><path class="c" d="M200.636,175.875l-8.841.019a2.4,2.4,0,0,0,0,4.8l8.841-.019a2.4,2.4,0,0,0,0-4.8Z"/><path class="c" d="M212.447,233.84q-1.738-11.624-3.476-23.248-.642-4.32-1.267-8.644-.221-1.541-.432-3.083c-.026-.185.056.441-.007-.052-.019-.149-.039-.3-.058-.446-.033-.261-.072-.523-.093-.785a9.379,9.379,0,0,1,.459-3.278c.583-2.108,1.3-4.167,1.837-6.291.755-3-3.873-4.274-4.628-1.276-.853,3.385-2.635,6.991-2.5,10.536.058,1.481.37,2.979.576,4.444.9,6.405,1.873,12.8,2.831,19.2q1.062,7.1,2.126,14.2a2.417,2.417,0,0,0,2.953,1.676,2.461,2.461,0,0,0,1.676-2.952Z"/><path class="c" d="M220.933,263.892c-5.3,5.1-10.676,10.118-16.2,14.965a2.4,2.4,0,0,0,3.394,3.395c5.529-4.848,10.907-9.868,16.2-14.966a2.4,2.4,0,0,0-3.394-3.394Z"/><path class="c" d="M198.231,302.139c.267.24.482.531.741.773q-.364-.481-.15-.185c.047.066.092.134.135.2.074.116.143.236.208.358.1.192.208.609-.024-.107.045.141.105.276.149.418a5.54,5.54,0,0,1,.183.834l-.086-.638a5.985,5.985,0,0,1,0,1.513l.086-.638a6.626,6.626,0,0,1-.173.838q-.048.175-.108.348c-.038.113-.231.587-.035.123s0-.018-.053.091-.11.208-.169.309-.117.185-.176.277c-.249.383.419-.482.141-.178-.1.107-.5.649-.644.625.016,0,.555-.389.188-.155-.06.037-.118.078-.178.115-.135.084-.274.163-.416.235-.063.032-.128.061-.192.092-.338.167.5-.184.229-.1-.136.044-.269.1-.406.139a7,7,0,0,1-1,.219l.638-.086a7.121,7.121,0,0,1-1.816.006l.638.086a8.361,8.361,0,0,1-1.4-.358c.723.231.394.171.208.08-.117-.058-.232-.12-.345-.187-.083-.05-.162-.105-.243-.158-.33-.212.512.441.129.1a8.718,8.718,0,0,1-.624-.622c-.282-.311.343.508-.006-.014-.066-.1-.13-.2-.189-.307s-.107-.208-.161-.311c-.187-.363.22.622.035.045a4.707,4.707,0,0,1-.171-.75l.086.638a5.2,5.2,0,0,1,0-1.3l-.086.638a6.059,6.059,0,0,1,.2-.9c.042-.141.093-.279.142-.417.162-.457-.243.5-.024.063a9.3,9.3,0,0,1,.46-.829q.12-.189.251-.37a1.088,1.088,0,0,1,.133-.18c-.073.063-.394.477-.132.181.09-.1.177-.2.275-.3s.464-.391.1-.113.041-.019.14-.081q.2-.127.416-.235c.024-.012.173-.1.194-.093,0,0-.592.227-.273.117.139-.048.276-.1.417-.142a6.341,6.341,0,0,1,.983-.208l-.638.085a6.451,6.451,0,0,1,1.577,0l-.638-.086a6.134,6.134,0,0,1,.661.132c.091.025.18.051.269.08s.5.195.081.015c-.4-.171-.073-.028.018.018s.2.1.294.161.188.122.282.183c.337.221-.46-.377-.132-.095a2.559,2.559,0,0,0,1.7.7,2.4,2.4,0,0,0,1.7-4.1,7.634,7.634,0,0,0-4.905-1.866,8.111,8.111,0,0,0-4.511,1.236,8.607,8.607,0,0,0-3.607,8.656,7.446,7.446,0,0,0,3.058,4.352,8.368,8.368,0,0,0,11.584-2.63,8.382,8.382,0,0,0,.967-4.491,7.95,7.95,0,0,0-2.586-5.257,2.4,2.4,0,0,0-3.394,3.394Z"/><path class="c" d="M238.522,257.581c-5.654-1.188-7.152-6.912-6.759-12a17.381,17.381,0,0,1,.536-3.195c.056-.208.121-.414.191-.618.048-.142.1-.28.153-.42.128-.361-.22.428.081-.191a10.15,10.15,0,0,1,2.5-3.566,7.3,7.3,0,0,1,1.885-1.3,8.642,8.642,0,0,1,2.757-.766,10.04,10.04,0,0,1,6.806,1.732c3.491,2.724,3.99,8.088,2.987,12.08-1.305,5.193-5.516,9.234-11.139,8.246a2.468,2.468,0,0,0-2.952,1.677,2.421,2.421,0,0,0,1.676,2.952,14.226,14.226,0,0,0,9.985-1.555,15.52,15.52,0,0,0,6.116-7.311c2.466-5.809,2.151-13.21-1.993-18.189-3.991-4.794-12.058-5.867-17.322-2.642a15.107,15.107,0,0,0-6.765,10.588,21.091,21.091,0,0,0,.85,11.129,12.69,12.69,0,0,0,9.129,7.98C240.26,262.843,241.548,258.217,238.522,257.581Z"/><path class="c" d="M239.92,250.714a2.954,2.954,0,0,1-1.17-.494c-1.532-1.095-1.668-3.3-1.265-5A3.483,3.483,0,0,1,242,242.682c2.037.558,2.655,2.824,2.3,4.7C243.912,249.4,242.337,251.172,239.92,250.714Z"/><path class="c" d="M161.767,161.375c-6.608,2.511-11.413,8.836-14.39,15.008a50.772,50.772,0,0,0-4.071,13.2c-.89,4.9-1.917,9.763-2.869,14.645-.492,2.523-.7,5.313-1.621,7.707-.772,2-1.452,4.042-2.06,6.1a112.626,112.626,0,0,0-3.021,13.283c-1.254,7.464-2.177,15.224-1.631,22.8.7,9.74,2.822,20.248,8.1,28.609,1.645,2.605,5.8.2,4.144-2.423-4.384-6.94-6.353-15.519-7.216-23.6a84.952,84.952,0,0,1,.745-21.02,121.778,121.778,0,0,1,2.5-12.709c.524-2.058,1.109-4.1,1.771-6.12a49.176,49.176,0,0,0,1.989-6.459c.887-4.855,1.891-9.688,2.843-14.53.879-4.469,1.489-9.007,3-13.322a35,35,0,0,1,6.032-10.874,26.871,26.871,0,0,1,3.734-3.707,18.574,18.574,0,0,1,1.746-1.178c.3-.178.61-.347.924-.5.134-.067.269-.131.405-.193.472-.216-.291.108.224-.087a2.468,2.468,0,0,0,1.676-2.952,2.418,2.418,0,0,0-2.952-1.677Z"/><path class="c" d="M153.715,276.933c-3.888-6.58-5.509-14.637-6.72-22.1q-.089-.549-.173-1.1c-.011-.077-.149-1.055-.092-.606-.1-.756-.148-1.518-.176-2.28-.061-1.663-.011-3.329.085-4.989.215-3.732.666-7.45,1.239-11.142.539-3.473,1.152-6.948,1.983-10.365l-4.387.573c2.591,4.67,4.524,9.795,6.648,14.687,2.682,6.177,5.811,12.318,7.735,18.777,1.109,3.724,1.729,7.621.551,11.4-.989,3.173-2.48,4.6-5.246,6.021a15.032,15.032,0,0,1-5.168,1.786,21.6,21.6,0,0,0-6.9,1.5c-3.914,1.86-5.047,6.493-3.73,10.392s4.983,7.041,9.281,6.039c2.238-.521,4.026-2.161,6.04-3.176,2.039-1.027,4.166-1.87,6.223-2.861,3.748-1.805,7.465-4,10.094-7.3a27.3,27.3,0,0,0,5.611-12.573c.7-4.571-.1-9.2-1.228-13.647a82.159,82.159,0,0,0-4.455-12.538c-3.464-7.954-7.82-15.476-11.442-23.356-.855-1.858-1.662-3.736-2.389-5.649a17.279,17.279,0,0,1-.8-2.181,11.338,11.338,0,0,1-.027-1.985,82.22,82.22,0,0,1,.751-9.559,108.348,108.348,0,0,1,4.82-21.447,44.12,44.12,0,0,1,1.635-4.138,2.471,2.471,0,0,0-.861-3.284,2.421,2.421,0,0,0-3.284.861c-2.98,6.438-4.664,13.463-5.937,20.414-.659,3.6-1.186,7.223-1.545,10.862a52.55,52.55,0,0,0-.347,8.383c.121,1.94,1.174,3.951,1.914,5.736q1.269,3.058,2.691,6.051c1.811,3.813,3.769,7.553,5.683,11.315,3.811,7.49,7.5,15.135,9.344,23.383.926,4.138,1.413,8.246.216,12.382a20.693,20.693,0,0,1-6.587,10.43c-3.167,2.531-7.062,4.052-10.719,5.711-.982.445-1.964.9-2.9,1.44-.959.548-1.832,1.263-2.824,1.751a2.62,2.62,0,0,1-3.456-.805,5.652,5.652,0,0,1-1.219-3.963c.124-1.626,1.188-2.39,2.716-2.826,2-.57,4.109-.513,6.135-.933a21.229,21.229,0,0,0,5.432-2.251,13.088,13.088,0,0,0,6.262-6.465,21.062,21.062,0,0,0,1.225-12.34c-1.267-7.205-4.88-13.889-7.75-20.554-2.275-5.283-4.539-10.58-6.987-15.785-.338-.718-.673-1.44-1.058-2.134a2.426,2.426,0,0,0-4.387.573,132.343,132.343,0,0,0-3.306,21.462,45.986,45.986,0,0,0,.229,10.21,106.265,106.265,0,0,0,2.318,11.383,51.718,51.718,0,0,0,5.1,13.226c1.57,2.657,5.721.245,4.144-2.423Z"/><path class="c" d="M135.126,256.6q4.457-.267,8.893-.774a2.608,2.608,0,0,0,1.7-.7,2.438,2.438,0,0,0,.7-1.7c-.053-1.178-1.064-2.552-2.4-2.4q-4.435.506-8.893.774a2.4,2.4,0,0,0,0,4.8Z"/><path class="c" d="M161.257,252.764c.124-.054.248-.106.372-.159l-.574.242a42.3,42.3,0,0,1,6.785-2.191,2.42,2.42,0,0,0,1.676-2.952,2.451,2.451,0,0,0-2.952-1.676,45.5,45.5,0,0,0-7.73,2.591,2.393,2.393,0,0,0-1.1,1.434,2.4,2.4,0,0,0,1.676,2.953l.638.085a2.384,2.384,0,0,0,1.211-.327Z"/><path class="c" d="M249.126,234.525c2-11.124,3.359-22.483,2.309-33.787-.871-9.386-2.617-19.08-7.355-27.341-3.007-5.242-7.117-10.183-12.815-12.54a2.414,2.414,0,0,0-2.952,1.676,2.46,2.46,0,0,0,1.676,2.952c4.15,1.717,7.318,5.916,9.574,9.7a42.956,42.956,0,0,1,5.081,13.229,96.771,96.771,0,0,1,2.257,25.067,150.58,150.58,0,0,1-2.4,19.771,2.467,2.467,0,0,0,1.676,2.952,2.421,2.421,0,0,0,2.952-1.676Z"/><path class="c" d="M148.326,281.739A26.873,26.873,0,0,1,150.1,288.3l-.086-.638q.136,1.021.2,2.05a2.4,2.4,0,0,0,4.8,0,28.674,28.674,0,0,0-2.056-9.245,2.643,2.643,0,0,0-1.1-1.434,2.4,2.4,0,0,0-3.284.861,2.317,2.317,0,0,0-.242,1.849Z"/><path class="c" d="M163.418,289.114c.178.075.336.17.506.261.36.191-.2-.234.06.048.139.149.285.288.418.443-.3-.354-.006.01.054.105.114.181.207.37.308.559.21.4-.069-.283.042.112.057.2.127.4.174.606.054.239.044.407.027.072.01.194.009.389.017.584.018.428.115-.352,0,.016-.175.571.21-.239-.043.184-.094.159-.18.319-.283.473.216-.321-.215.225-.28.287s-.429.366-.159.16a6.785,6.785,0,0,1-1.213.709q-.193.087.042-.012c-.117.047-.236.092-.355.134-.208.075-.418.141-.63.2-.233.067-.468.128-.7.181-.146.033-.293.062-.44.087.126-.011.118-.01-.023,0a6.964,6.964,0,0,1-.778.022c-.262-.021-.3-.023-.1,0-.094-.018-.188-.039-.28-.065s-.664-.244-.331-.092a5.045,5.045,0,0,1-.59-.325c-.082-.051-.163-.1-.242-.16.144.121.126.107-.056-.044s-.338-.3-.5-.466a4.672,4.672,0,0,1-.726-.917,22.506,22.506,0,0,1-1.5-2.878,2.008,2.008,0,0,0-2.736-.717,2.056,2.056,0,0,0-.718,2.736,13.906,13.906,0,0,0,3.421,5.133,7.816,7.816,0,0,0,2.816,1.563,7.691,7.691,0,0,0,3.623.027,9.714,9.714,0,0,0,5.2-2.646,5.649,5.649,0,0,0,1.4-5.311,6.54,6.54,0,0,0-3.4-4.525,2.058,2.058,0,0,0-2.736.717,2.022,2.022,0,0,0,.717,2.737Z"/><path class="c" d="M244.125,115.285a25.574,25.574,0,0,1-1.219,6.465c-.238.794-.5,1.581-.765,2.366-.093.271-.183.544-.278.814-.064.181-.361.838-.05.145a49.9,49.9,0,0,1-3.317,6.069,64.418,64.418,0,0,1-13.548,15.765,28.618,28.618,0,0,1-10.072,5.524c-2.965.847-1.705,5.48,1.276,4.628,7.661-2.188,14.042-7.7,19.168-13.613a66.167,66.167,0,0,0,10.487-15.611,34.023,34.023,0,0,0,3.118-12.552c.1-3.09-4.7-3.086-4.8,0Z"/><path class="c" d="M141.943,115.352c2.859,15.318,11.034,30.027,24.738,38.146a33.3,33.3,0,0,0,11.906,4.358,2.476,2.476,0,0,0,2.952-1.676,2.418,2.418,0,0,0-1.676-2.952c-14.621-2.222-25.813-15.469-30.546-28.775a68.326,68.326,0,0,1-2.746-10.377,2.421,2.421,0,0,0-2.952-1.676,2.451,2.451,0,0,0-1.676,2.952Z"/><path class="c" d="M251.371,89.354a5.483,5.483,0,0,1,7.6.636c1.081,1.368,1.182,3.325,1.254,4.992a28.271,28.271,0,0,1-.3,5.777,29.309,29.309,0,0,1-4,10.866c-1.538,2.445-4.084,5.752-7.329,4.86-2.982-.821-4.255,3.808-1.276,4.628,8.347,2.3,13.821-7.566,16-14.107a33.679,33.679,0,0,0,1.691-12.245c-.2-4.015-1.271-7.835-4.927-10.017a10.438,10.438,0,0,0-12.113,1.216,2.42,2.42,0,0,0,0,3.394,2.448,2.448,0,0,0,3.394,0Z"/><path class="c" d="M143.686,85.96a10.447,10.447,0,0,0-11.1-1.724c-3.837,1.7-5.448,5.237-5.843,9.218-.8,8.1,1.63,17.156,6.923,23.417,2.833,3.352,6.92,6.044,11.452,4.99,3.007-.7,1.734-5.329-1.276-4.629-3.153.734-6.221-2.765-7.771-5.088a28.846,28.846,0,0,1-4.258-10.946,28.462,28.462,0,0,1-.392-5.772c.047-1.678.087-3.7,1.069-5.138a5.437,5.437,0,0,1,7.8-.934,2.462,2.462,0,0,0,3.394,0,2.421,2.421,0,0,0,0-3.394Z"/><path class="c" d="M229.841,165.192a203.6,203.6,0,0,1-4.413,21.482c-1.474,5.685-3.378,11.188-5.371,16.7-4.434,12.276-8.775,24.629-13.875,36.648-6.4,15.079-14.449,29.25-22.515,43.477a110.291,110.291,0,0,0-5.222,10.258,52.77,52.77,0,0,0-3.258,8.62c-1.18,4.919-1.348,10.135-1.5,15.17-.364,12.03.188,24.063.479,36.088q.038,1.543.061,3.087c.043,3.086,4.843,3.1,4.8,0-.158-11.477-.756-22.941-.634-34.423.031-2.976.1-5.954.269-8.926.073-1.321.164-2.641.286-3.959q.079-.874.18-1.748c.037-.315.075-.63.117-.945-.06.445.058-.379.075-.485.891-5.755,3.594-11.295,6.3-16.394,3.772-7.115,7.987-14,11.857-21.063,3.844-7.014,7.459-14.148,10.724-21.451,5.695-12.737,10.415-25.9,15.162-39.009,1.784-4.928,3.677-9.832,5.169-14.858a201.864,201.864,0,0,0,5.181-22.32q.412-2.334.759-4.678a2.479,2.479,0,0,0-1.676-2.952,2.418,2.418,0,0,0-2.952,1.676Z"/><path class="c" d="M159.356,165.335a193.844,193.844,0,0,0,8.753,43.6,384.8,384.8,0,0,0,15.346,39.1c3.088,6.965,6.252,13.9,9.322,20.869a2.417,2.417,0,0,0,3.284.861,2.462,2.462,0,0,0,.861-3.284c-11.008-25-22.971-49.708-29.01-76.51a173.633,173.633,0,0,1-3.756-24.633,2.46,2.46,0,0,0-2.4-2.4,2.419,2.419,0,0,0-2.4,2.4Z"/><path class="c" d="M216.482,194.639a109.718,109.718,0,0,0,12.858-18.7q1.314-2.456,2.511-4.971a17.441,17.441,0,0,0,1.248-2.718c.327-1.191-.451-2.264-.983-3.268a31.524,31.524,0,0,0-6.329-8.479,2.446,2.446,0,0,0-3.769.486c-4.025,5.337-10.919,9.6-17.06,12.667-2,1-4.088,1.762-6.091,2.731-2.092,1.012-3.315,2.981-1.835,5.135,1.559,2.271,3.865,4.1,5.722,6.121,3.405,3.7,7.088,7.154,10.334,11a2.42,2.42,0,0,0,3.394,0,2.452,2.452,0,0,0,0-3.4c-3.052-3.615-6.506-6.865-9.72-10.332-1.381-1.491-2.765-2.972-4.209-4.4-.389-.386-.772-.778-1.162-1.164-.155-.153-.5-.659-.008.044-.059-.085-.38-.634-.343-.472v1.276l.07-.276-.617,1.059c-.244.286.25-.17.433-.267s.372-.192.562-.277c.807-.365,1.642-.677,2.455-1.031q2.142-.933,4.221-2a69.685,69.685,0,0,0,7.382-4.372,43.986,43.986,0,0,0,10.616-9.62l-3.769.485a31.159,31.159,0,0,1,6.319,8.926V166.4a109.882,109.882,0,0,1-15.624,24.847,2.466,2.466,0,0,0,0,3.4A2.421,2.421,0,0,0,216.482,194.639Z"/><path class="c" d="M179.867,191.244A109.886,109.886,0,0,1,164.242,166.4v2.422a31.176,31.176,0,0,1,6.32-8.926l-3.77-.485a44,44,0,0,0,10.616,9.62,70.058,70.058,0,0,0,7.382,4.372q1.979,1.017,4.015,1.911c.812.357,1.638.681,2.451,1.035.264.115.518.227.773.363.163.086.722.606.433.267l-.617-1.059.07.276v-1.276c.037-.162-.284.387-.343.472.5-.7.147-.2-.009-.044-.389.386-.772.778-1.162,1.164-1.443,1.431-2.827,2.912-4.209,4.4-3.213,3.467-6.667,6.717-9.719,10.332a2.465,2.465,0,0,0,0,3.4,2.421,2.421,0,0,0,3.394,0c2.855-3.383,6.065-6.444,9.095-9.665,1.406-1.494,2.778-3.016,4.227-4.468.7-.7,1.459-1.373,2.1-2.136,1.371-1.643,1.984-3.83-.031-5.3-1.65-1.2-3.816-1.782-5.661-2.647a69.695,69.695,0,0,1-10.889-6.325,37.491,37.491,0,0,1-7.768-7.115,2.446,2.446,0,0,0-3.769-.486,31.524,31.524,0,0,0-6.329,8.479c-.486.917-1.172,1.87-1.026,2.949a10.6,10.6,0,0,0,1.2,2.846q1.244,2.609,2.6,5.162a109.718,109.718,0,0,0,12.858,18.7,2.42,2.42,0,0,0,3.394,0A2.453,2.453,0,0,0,179.867,191.244Z"/><path class="c" d="M229.374,174.053c.379.4.1.055.318.37.182.262.353.532.519.805.444.733.839,1.5,1.214,2.266a36.056,36.056,0,0,1,1.774,4.3,106.119,106.119,0,0,1,4.514,35.219c-.263,5.045-.86,10.066-1.607,15.06a2.478,2.478,0,0,0,1.676,2.953,2.418,2.418,0,0,0,2.952-1.677c1.334-8.914,2.286-17.916,1.777-26.938a107.213,107.213,0,0,0-4.518-25.381,42.522,42.522,0,0,0-2.274-5.646,17.885,17.885,0,0,0-2.95-4.722c-2.133-2.243-5.524,1.155-3.4,3.394Z"/><path class="a" d="M40.573,176.987c-2.468-9.47-8.057-28.865-10.2-31.588-1.62-2.067-3.551-3.666-7.114-2.15-3.063,1.309-2.565,4.84-1.983,7.758.594,3.034,4.507,18.869,6.777,27.06a6.014,6.014,0,0,0-7.2-2.035c-2.4,1.1-3.329,3.145-3.059,4.624a14.013,14.013,0,0,0,1.107,3.3c-1.515-1.5-4.254-1.491-6.21-.444-2.075,1.111-4.166,4.085-3.143,6.231.447.939,1.025,2.026,1.666,3.119l-.723-.595c-2.636-2.167-7.212-.833-7.956,2.057-.571,2.218.393,4.834,1.628,6.862.173.285.36.593.559.916l.176.543c1.691,5.235,4.982,13.234,9.913,18.935,2.289,2.643,4.931,5.266,7.007,8.1s2.592,5.984,3.605,9.376l.433,1.354c4.933-1.819,19.924-7.4,28.453-11.365l-.235-.738c-.789-3.645-1.66-8.384-1.144-11.472a78.121,78.121,0,0,1,3.484-10.217,18.94,18.94,0,0,0,1.458-8.546c-.365-3.322-1.226-8.071-3.7-11.534a6.979,6.979,0,0,0-2.056-1.853c-2.96-1.814-6.628-1.9-10.107-1.693L41.7,181.6C41.536,180.79,41.136,179.147,40.573,176.987Z"/><path class="c" d="M30.333,177.34c-1.777-6.47-3.409-12.982-5-19.5-.561-2.3-1.133-4.6-1.626-6.912a15.665,15.665,0,0,1-.465-3.5c.02-1.3.365-1.948,1.871-2.276,1.422-.311,2.13.313,3.067,1.346.054.059.455.563.234.266-.146-.2-.031-.044,0,.007.057.087.116.174.169.265.153.265.294.535.428.81.08.166.156.335.233.5.038.083.275.631.125.28s.1.245.136.333q.153.381.3.765c.395,1.024.764,2.057,1.122,3.094,1.828,5.3,3.411,10.682,4.94,16.073,1.252,4.41,2.611,8.851,3.51,13.35a2.4,2.4,0,1,0,4.629-1.276c-.846-4.232-2.116-8.41-3.287-12.56-1.625-5.766-3.307-11.531-5.277-17.19-1.562-4.486-3.5-10.618-9.223-10.95a7.925,7.925,0,0,0-6.134,2.361,7.554,7.554,0,0,0-1.633,5.417,42.249,42.249,0,0,0,1.4,7.569c1.825,7.7,3.747,15.377,5.843,23.005.817,2.975,5.449,1.712,4.628-1.276Z"/><path class="c" d="M2.585,203.284a60.491,60.491,0,0,0,8.774,17.8c2.321,3.074,5.109,5.742,7.541,8.723a14.946,14.946,0,0,1,2.605,4.411c.642,1.793,1.069,3.655,1.605,5.48.868,2.958,5.5,1.7,4.628-1.276-1.053-3.586-1.833-7.244-4.109-10.3-2.372-3.187-5.259-5.92-7.759-9-4.021-4.948-6.7-11.091-8.657-17.113-.951-2.925-5.588-1.673-4.628,1.276Z"/><path class="c" d="M44.593,201a47.137,47.137,0,0,0-1.286-5.4,6.51,6.51,0,0,0-2.915-3.994,12.505,12.505,0,0,0-4.78-1.263c-.477-.068-.937-.192-1.408-.277.279.05-.144-.226.028.041q.216.366-.184-.286a3.188,3.188,0,0,1-.289-.571,2.254,2.254,0,0,1,.026-1.657,5.883,5.883,0,0,1,.478-.96c.6-1.018.2-.229.113-.182a10.858,10.858,0,0,1,3.98-.793c3.2-.288,6.666-.73,9.83.018a7.2,7.2,0,0,1,3.785,1.943A11.941,11.941,0,0,1,54.1,191.7a23.552,23.552,0,0,1,1.421,7.647c-.057,4.463-2.16,8.166-3.564,12.341-.362,1.077-.718,2.158-1.036,3.249-.095.327-.2.657-.265.991-.056.266-.081.53-.117.8.077-.576-.065.442-.1.764-.364,3.8.523,7.756,1.317,11.449.65,3.019,5.278,1.741,4.629-1.276-.711-3.3-1.5-6.8-1.144-10.2.02-.2.052-.462.086-.66s-.221.6-.056.438c.051-.052.057-.26.078-.331.12-.4.222-.795.342-1.19.335-1.1.7-2.2,1.07-3.292.384-1.128.778-2.252,1.2-3.365.09-.236.182-.47.274-.7s.216-.478.029-.081c.24-.508.486-1.01.7-1.53a19.311,19.311,0,0,0,1.3-8.686,31.466,31.466,0,0,0-2.5-10.038,11.8,11.8,0,0,0-8.316-6.986c-3.628-.857-7.434-.518-11.106-.189a19.02,19.02,0,0,0-5.583,1.073,6.358,6.358,0,0,0-3.478,4.012c-1.448,3.78.6,8.331,4.716,8.982,1.255.2,3.7.06,4.445,1.3a9.931,9.931,0,0,1,.662,2.4,30.282,30.282,0,0,1,.847,3.651,2.415,2.415,0,0,0,2.952,1.676A2.461,2.461,0,0,0,44.593,201Z"/><path class="c" d="M14.992,202.944c.113.4.034-.453.023.112-.011.581.116-.237-.018.171-.041.127-.322.818-.085.349-.123.244-.244.486-.389.718-.074.117-.153.228-.23.342.019-.028.238-.287.063-.08a7,7,0,0,1-.475.514c-.093.09-.19.172-.286.258.072-.065.4-.242.046-.045-.074.042-.15.089-.222.135-.3.195-.191.047.059-.009-.127.028-.713.185-.476.137s-.413.024-.539.025c-.1,0-.952-.058-.484,0a6.689,6.689,0,0,1-.895-.19c-.147-.04-.29-.089-.436-.135-.018,0-.366-.139-.133-.042.253.1-.164-.085-.219-.113-.1-.051-.192-.1-.286-.16-.123-.073-.242-.152-.359-.235.086.061.32.294.01-.009-.206-.2-.416-.4-.611-.61s-.355-.406-.526-.615c-.252-.307.176.241-.066-.084-.073-.1-.145-.2-.216-.294-.379-.526-.736-1.068-1.083-1.615a26.11,26.11,0,0,1-1.752-3.055c-.013-.028-.166-.419-.058-.136-.046-.12-.09-.241-.132-.362-.1-.281-.188-.565-.262-.854-.043-.163-.073-.328-.114-.491-.014-.056-.076-.47-.031-.1-.04-.324-.023-.648-.039-.973,0-.067.038-.478-.017-.075a3.476,3.476,0,0,1,.07-.349,3.159,3.159,0,0,0,.1-.356c.023-.231-.055.145-.084.187.092-.133.487-.674.075-.215.153-.17.311-.328.472-.489.121-.121.317-.158-.077.054.1-.055.2-.132.3-.192s.211-.111.312-.172c.368-.225-.256.042,0-.012.235-.049.464-.157.7-.213.119-.028.244-.042.362-.074.3-.082-.556.013.006.01.249,0,.5,0,.744,0,.163,0,.387.111-.084-.018.119.032.244.047.364.077s.238.074.358.1c.409.1-.157-.147.032,0,.124.1.818.524.392.188a2.477,2.477,0,0,0,3.394,0,2.417,2.417,0,0,0,0-3.394,7.933,7.933,0,0,0-8.853-.737c-3.122,1.733-3.857,5.236-3.01,8.509a17.459,17.459,0,0,0,2.146,4.68,32.483,32.483,0,0,0,2.882,4.109,9.213,9.213,0,0,0,9.014,3.013c3.366-.787,6.212-5.083,5.252-8.477a2.4,2.4,0,0,0-4.628,1.276Z"/><path class="c" d="M20.828,182.5c-2.932-3.223-8.152-2.47-11.122.247a8.228,8.228,0,0,0-2.824,5.686c-.012,2.078,1.315,4.038,2.333,5.771,1.669,2.838,3.663,5.566,5.563,8.259a17.767,17.767,0,0,0,2.818,3.41,8.451,8.451,0,0,0,5.671,1.775c5.156-.221,7.993-5.266,6.7-10-.815-2.975-5.447-1.712-4.628,1.277a3.266,3.266,0,0,1-.438,3.094c.156-.206-.288.279-.357.346-.194.189,0,.03.041-.006-.086.067-.18.128-.272.186a2.215,2.215,0,0,1-1.342.313,4.643,4.643,0,0,1-1.591-.277,4.272,4.272,0,0,0-.579-.266c-.037-.01-.308-.19.01.024s-.087-.088-.131-.133a13.9,13.9,0,0,1-1.752-2.161c-1.328-1.882-2.628-3.792-3.933-5.688a44.443,44.443,0,0,1-2.575-4.256,10.264,10.264,0,0,1-.734-1.5c.061.2,0-.186,0-.214a2.775,2.775,0,0,1,.276-.8,4.4,4.4,0,0,1,2.69-2.276,2.562,2.562,0,0,1,2.785.584c2.083,2.29,5.47-1.112,3.394-3.394Z"/><path class="c" d="M33.367,193.549a3.236,3.236,0,0,1-1.031,2.933,1.962,1.962,0,0,1-2.056.413,6.65,6.65,0,0,1-2.425-2.721c-1.04-1.708-2.11-3.394-3.189-5.077-1.762-2.747-3.753-5.575-4.5-8.8,0-.02-.116-.474-.035-.18s.119-.277.009-.043c-.12.255.187-.612.063-.3a2.543,2.543,0,0,1,.924-1.144,3.447,3.447,0,0,1,3.576-.321c1.3.611,2.219,2.056,3.065,3.166.99,1.3,1.953,2.628,2.817,4.013,1.632,2.615,5.787.208,4.145-2.423a59.258,59.258,0,0,0-3.5-4.9c-1.254-1.616-2.508-3.261-4.411-4.146-4.244-1.975-10.095-.127-11.295,4.751-.505,2.052.308,4.14,1.126,6a45.81,45.81,0,0,0,3.434,6.071c1.309,2.054,2.582,4.131,3.889,6.186a10.4,10.4,0,0,0,4.87,4.462,6.958,6.958,0,0,0,6.65-1.411,7.8,7.8,0,0,0,2.676-6.521c-.156-3.073-4.957-3.092-4.8,0Z"/><path class="c" d="M30.264,249.531c-1.3-3.247-2.309-6.621-3.712-9.824l-1.434,3.526c8.616-3.168,17.211-6.416,25.659-10.013,2.467-1.05,4.926-2.129,7.314-3.349l-3.283-.861c1.377,2.8,2.563,5.691,3.9,8.51a2.421,2.421,0,0,0,3.283.861,2.452,2.452,0,0,0,.861-3.284c-1.336-2.819-2.522-5.71-3.9-8.51a2.441,2.441,0,0,0-3.283-.861c-8.864,4.528-18.393,7.883-27.716,11.359q-2.053.765-4.111,1.52a2.452,2.452,0,0,0-1.434,3.525c-.242-.552-.106-.257.021.08.106.283.213.566.318.85.3.818.6,1.639.9,2.459.645,1.769,1.291,3.539,1.991,5.288a2.474,2.474,0,0,0,2.952,1.676,2.416,2.416,0,0,0,1.676-2.952Z"/><path class="c" d="M86.591,281.181c-6.906-15.286-13.216-30.817-19.546-46.347A2.447,2.447,0,0,0,63.52,233.4q-9.78,5.144-19.963,9.487A113.419,113.419,0,0,1,23.8,249.679a2.422,2.422,0,0,0-1.677,2.952c3.591,11.5,7.049,23.052,11.031,34.429,1.972,5.637,4.071,11.232,6.374,16.744A112.377,112.377,0,0,0,46.3,317.888c4.835,8.159,11.567,15.306,20.737,18.412a36.436,36.436,0,0,0,30.646-3.512c4.693-2.921,8.6-6.921,12.226-11.052,3.6-4.106,6.915-8.446,10.3-12.727a2.477,2.477,0,0,0,0-3.394,2.416,2.416,0,0,0-3.394,0c-5.755,7.278-11.327,15.154-18.631,20.988a31.6,31.6,0,0,1-27.037,5.876c-8.659-2.063-15.091-8.087-19.747-15.452-5.555-8.788-9.187-18.836-12.677-28.576-4.384-12.236-8.1-24.693-11.974-37.1l-1.676,2.952c7.073-1.556,13.884-4.3,20.533-7.12q10.359-4.392,20.332-9.643l-3.525-1.434C68.9,252.023,75.369,267.94,82.446,283.6a2.417,2.417,0,0,0,3.284.861,2.457,2.457,0,0,0,.861-3.283Z"/><path class="c" d="M188.986,90.045c0,.129.021.257.016.386l4.714-.638a7.463,7.463,0,0,0-3.118-5.136,17.621,17.621,0,0,0-5.554-2.3,41.912,41.912,0,0,0-12.888-1.087,39.846,39.846,0,0,0-12.813,2.441,8.381,8.381,0,0,0-4.6,4.006,13.514,13.514,0,0,0-1.021,5.976,20.379,20.379,0,0,0,2.939,10.784c2.041,3.064,5.485,4.716,8.893,5.815a26.415,26.415,0,0,0,10.008,1.037,30.676,30.676,0,0,0,10.616-2.288c7.461-3.313,8.6-12.489,7.52-19.639a2.416,2.416,0,0,0-2.952-1.676,2.46,2.46,0,0,0-1.676,2.952c.653,4.326.343,10.349-3.5,13.219-1.975,1.473-4.885,2.113-7.288,2.428a31.674,31.674,0,0,1-7.86.2,18.455,18.455,0,0,1-8.03-2.959c-2.193-1.468-3.054-4.181-3.542-6.659a18.548,18.548,0,0,1-.32-4.074c.037-1.369.1-2.985,1.245-3.923a9.516,9.516,0,0,1,3.684-1.485,40.163,40.163,0,0,1,5.709-1.107,42.98,42.98,0,0,1,12,.108,23.214,23.214,0,0,1,5.519,1.523,4.978,4.978,0,0,1,1.7,1.047,4.137,4.137,0,0,1,.7,2.067c.5,2.769,4.6,1.948,4.715-.638,0-.129-.021-.257-.016-.386C193.9,86.956,189.1,86.96,188.986,90.045Z"/><path class="c" d="M200.928,90.045c0,.129-.021.257-.016.386a2.409,2.409,0,0,0,2.081,2.357,2.378,2.378,0,0,0,2.634-1.719,3.277,3.277,0,0,1,2.021-2.929,19.455,19.455,0,0,1,4.589-1.457,39.493,39.493,0,0,1,10.552-.6A36.632,36.632,0,0,1,233.4,88.069a3.661,3.661,0,0,1,2.537,2.5,13.548,13.548,0,0,1,.2,4.379c-.191,2.539-.864,5.619-2.589,7.6-1.8,2.063-4.688,2.922-7.181,3.56a30.42,30.42,0,0,1-15.546-1.269c-5.3-2.234-5.924-9.2-5.175-14.159a2.477,2.477,0,0,0-1.676-2.952,2.418,2.418,0,0,0-2.952,1.676c-.989,6.544-.236,14.378,5.582,18.546,2.75,1.969,6.531,2.806,9.839,3.177a33.253,33.253,0,0,0,9.975-.114,21.252,21.252,0,0,0,10.034-4.586c2.66-2.379,3.82-6.321,4.292-9.736.523-3.782.611-8.58-2.543-11.292a13.842,13.842,0,0,0-5.659-2.6,48.688,48.688,0,0,0-6.756-1.251,45.741,45.741,0,0,0-14.6.459,21.744,21.744,0,0,0-6.438,2.249A7.52,7.52,0,0,0,201,89.793l4.714.638c0-.129.021-.257.016-.386C205.616,86.966,200.815,86.951,200.928,90.045Z"/><path class="c" d="M193.209,93.894c.435-.108.872-.205,1.313-.285.189-.034.378-.063.567-.094.639-.1-.521.047.122-.013a22.866,22.866,0,0,1,2.483-.115c.382.007.765.025,1.146.054q.334.025.667.063.142.015.285.033-.482-.066-.069-.006a24.393,24.393,0,0,1,2.436.541,2.4,2.4,0,0,0,1.276-4.629,22.373,22.373,0,0,0-11.5-.178,2.423,2.423,0,0,0-1.676,2.952,2.449,2.449,0,0,0,2.952,1.677Z"/><path class="c" d="M156.717,88.187a20.255,20.255,0,0,0-5.023-.5,2.511,2.511,0,0,0-1.7.7,2.4,2.4,0,0,0,1.7,4.1,17.68,17.68,0,0,1,2.881.146l-.638-.086q.757.1,1.5.271a2.533,2.533,0,0,0,1.849-.242,2.4,2.4,0,0,0,.861-3.284,2.414,2.414,0,0,0-1.434-1.1Z"/><path class="c" d="M239.332,92.816q.747-.168,1.5-.271l-.638.086a17.68,17.68,0,0,1,2.881-.146,2.4,2.4,0,0,0,1.7-4.1,2.564,2.564,0,0,0-1.7-.7,20.255,20.255,0,0,0-5.023.5,2.4,2.4,0,0,0-.573,4.387,2.6,2.6,0,0,0,1.849.242Z"/><path class="c" d="M185.556,129.644c3.015,2.955,7.8,3.811,11.845,3.81s8.83-.847,11.85-3.8c2.212-2.164-1.183-5.557-3.394-3.395-.1.1-.6.522-.3.286.279-.221-.369.245-.518.336-.263.162-.534.311-.81.449-.185.093-.373.182-.564.265.326-.142-.007,0-.16.054a17.73,17.73,0,0,1-6.1,1,17.245,17.245,0,0,1-5.994-.97c-.027-.01-.722-.3-.27-.1q-.238-.1-.472-.221c-.307-.151-.608-.314-.9-.494-.224-.138-.434-.292-.65-.44.613.418-.017-.036-.167-.183-2.208-2.164-5.6,1.228-3.394,3.394Z"/><path class="c" d="M196.179,107.33a48.684,48.684,0,0,1,1.14,5.227l-.086-.638a3.172,3.172,0,0,1,.02.722l.085-.638a1.721,1.721,0,0,1-.079.324l.242-.573a1.313,1.313,0,0,1-.115.208l.375-.485a1.081,1.081,0,0,1-.17.168l.485-.375a3.477,3.477,0,0,1-.414.219l.574-.242a3.035,3.035,0,0,1-.7.2l.638-.086a2.814,2.814,0,0,1-.655,0l.638.085c-.247-.034-.49-.094-.737-.128a2.655,2.655,0,0,0-1.849.242,2.4,2.4,0,0,0-.861,3.284,2.3,2.3,0,0,0,1.434,1.1c.538.072,1.059.21,1.605.234a5.064,5.064,0,0,0,2.334-.55,3.308,3.308,0,0,0,1.852-2.187,5.6,5.6,0,0,0-.025-2.387c-.284-1.684-.672-3.353-1.1-5a2.4,2.4,0,0,0-4.629,1.276Z"/><path class="c" d="M169.477,92.84c-.821,2.661-.29,8.785,4.753,9.309,6.665-.036,7.024-7.44,4.782-10.922C177.176,88.376,171.775,87.188,169.477,92.84Z"/><path class="c" d="M224.414,92.868c.818,2.662.281,8.786-4.763,9.3-6.665-.043-7.016-7.447-4.771-10.927C216.719,88.4,222.121,87.213,224.414,92.868Z"/></svg>