<!DOCTYPE svg PUBLIC "-//W3C//DTD SVG 1.1//EN" "http://www.w3.org/Graphics/SVG/1.1/DTD/svg11.dtd">
<!-- Uploaded to: SVG Repo, www.svgrepo.com, Transformed by: SVG Repo Mixer Tools -->
<svg width="800px" height="800px" viewBox="-6.4 -6.4 76.80 76.80" xmlns="http://www.w3.org/2000/svg" xmlns:xlink="http://www.w3.org/1999/xlink" aria-hidden="true" role="img" class="iconify iconify--medical-icon" preserveAspectRatio="xMidYMid meet" fill="#ffffff" stroke="#ffffff" stroke-width="1.536">
<g id="SVGRepo_bgCarrier" stroke-width="0"/>
<g id="SVGRepo_tracerCarrier" stroke-linecap="round" stroke-linejoin="round" stroke="#CCCCCC" stroke-width="0.512"/>
<g id="SVGRepo_iconCarrier">
<path d="M22.773 15.418v12.124a1.643 1.643 0 0 1-1.627 1.663a1.665 1.665 0 0 1-1.655-1.663V15.418h-3.17v12.124c0 .916-.723 1.659-1.629 1.663a1.665 1.665 0 0 1-1.655-1.663V15.418H9.991v15.763h15.788V15.418h-3.005z" fill="#000000"/>
<path d="M55.428.423H8.643C4.058.423.329 4.153.329 8.738V55.52c0 4.586 3.73 8.315 8.314 8.315h46.785c4.584 0 8.314-3.729 8.314-8.315V8.738c0-4.585-3.729-8.315-8.314-8.315zM8.381 32.788V13.811h4.655v-3.788h-.501l-.008-.908h4.252l.005.908h-.464v3.788h3.17v-3.788h-.501l-.006-.908h4.249l.007.908h-.466v3.788h4.613v18.977H8.381zm17.428 5.185l11.628 6.717l-1.15 1.994l-11.631-6.717l1.153-1.994zM54.698 55.28H26.104v-4.772h10.158c6.95 0 12.607-5.654 12.607-12.604c0-4.394-2.281-8.364-5.835-10.63l-5.797 10.04l-1.203-.695l-1.71 2.959l-3.029-1.749l1.71-2.957l-1.204-.695l13.786-23.881l.927.535l1.387-2.401l3.626 2.094l-1.383 2.405l.881.508l-5.608 9.707c5.006 3.105 8.225 8.633 8.225 14.762c0 4.975-2.128 9.432-5.487 12.604h6.544v4.772z" fill="#000000"/>
</g>
</svg>