<!DOCTYPE svg PUBLIC "-//W3C//DTD SVG 1.1//EN" "http://www.w3.org/Graphics/SVG/1.1/DTD/svg11.dtd">
<!-- Uploaded to: SVG Repo, www.svgrepo.com, Transformed by: SVG Repo Mixer Tools -->
<svg version="1.1" id="_x32_" xmlns="http://www.w3.org/2000/svg" xmlns:xlink="http://www.w3.org/1999/xlink" width="800px" height="800px" viewBox="0 0 512 512" xml:space="preserve" fill="#000000">
<g id="SVGRepo_bgCarrier" stroke-width="0"/>
<g id="SVGRepo_tracerCarrier" stroke-linecap="round" stroke-linejoin="round"/>
<g id="SVGRepo_iconCarrier"> <style type="text/css">  .st0{fill:#ffae00;}  </style> <g> <path class="st0" d="M263.859,400.923c0-4.766-1.75-9.266-5.781-12.266c-2.813-2.094-5.281-4.422-7.219-7.031 c-1.125-1.5-2.078-3.047-2.891-4.609c-0.922-1.813-1.656-3.625-2.234-5.422c-0.656-2.063-1.125-4.094-1.469-6.078 c-0.391-2.266-0.594-4.453-0.734-6.594c-0.141-2.422-0.172-4.734-0.172-6.953c0-2.047-0.016-4.031-0.016-5.844v-1.313v-9.141 v-3.625c0,0,0-50.313,0-67.844c0-8.297-2.391-15.969-9.734-23.313c-16.391-16.391-41.563-10.047-43.063-10.531l-56.969,13.844 c14.75,20.094,35.375,36.156,60.484,45.344v21.172c-85,23.906-146.719,97.469-146.719,201.282h80.703H184v-12.109 c0-6.359,0.328-12.172,1.016-17.516c0.672-5.359,1.719-10.266,3.188-14.766c0.984-3,2.172-5.828,3.563-8.484 c1.859-3.547,4.141-6.75,6.797-9.563c1.531-1.609,12.688-14.172,28.844-14.172C253.375,435.393,263.859,422.049,263.859,400.923z"/> <path class="st0" d="M309.266,308.486v-31.344c23.984-15.172,47.391-61.109,47.391-116.406v-36.094 c-3.531-72.281-65-128.016-137.281-124.484C149.797,3.564,95.563,60.673,94.797,129.423l-28.781,39.5 c-2.344,3.109-3.469,6.516-1.609,10.094c1.922,3.641,5.969,4.313,9.25,4.813l23.703,3.609l2.234,22.5 c0,0,91.875,0.344,106.703,0.344c62.406,0,58.922,17,58.922,53.922c0,17.531,0,64.672,0,64.672v2.141c0,2.031-0.031,4-0.031,5.859 c0,2.281,0.188,4.422,0.188,6.328c0,4.031,3.797,8.328,4.375,9.031c0.328,0.391,0.719,0.766,1.188,1.172 c0.531,0.438,1.188,0.875,2.031,1.328c0.953,0.531,2.156,1.047,3.656,1.531c1.719,0.547,3.859,1.031,6.422,1.406 c2,0.266,4.281,0.484,6.859,0.578c4.641-0.25,9.719,0.047,14.922,1.25c34.438,7.906,58.75,61.969,24.281,103.922 c-34.484,41.953-84.734,27.406-105.203,15.406c-4.953-2.891-13.656-7.516-15.281-1.156c-0.672,2.625-1.141,5.656-1.516,9.063 c-0.406,3.891-0.641,8.266-0.625,13.156v12.109h162.156h96.016C464.656,404.689,398.703,329.705,309.266,308.486z"/> </g> </g>
</svg>