<!DOCTYPE svg PUBLIC "-//W3C//DTD SVG 1.1//EN" "http://www.w3.org/Graphics/SVG/1.1/DTD/svg11.dtd">
<!-- Uploaded to: SVG Repo, www.svgrepo.com, Transformed by: SVG Repo Mixer Tools -->
<svg width="800px" height="800px" viewBox="0 0 64 64" xmlns="http://www.w3.org/2000/svg" xmlns:xlink="http://www.w3.org/1999/xlink" aria-hidden="true" role="img" class="iconify iconify--medical-icon" preserveAspectRatio="xMidYMid meet" fill="#000000">
<g id="SVGRepo_bgCarrier" stroke-width="0"/>
<g id="SVGRepo_tracerCarrier" stroke-linecap="round" stroke-linejoin="round"/>
<g id="SVGRepo_iconCarrier">
<path d="M50.579 56.62a2.99 2.99 0 1 1-5.98 0v-2.608h5.979l.001 2.608z" fill="#ffae00"/>
<path d="M42.69 63.723h-8.503l.013-4.196h-2.849l-.004 4.196h-8.519v-9.711H42.69z" fill="#ffae00"/>
<path d="M20.852 56.62a2.989 2.989 0 1 1-5.979 0v-2.608h5.979v2.608z" fill="#ffae00"/>
<path d="M32.729.704a7.723 7.723 0 0 1 7.722 7.726a7.722 7.722 0 0 1-7.722 7.724a7.725 7.725 0 1 1 0-15.45z" fill="#ffae00"/>
<path d="M54.697 51.001h-43.94V25.322h43.94v25.679zm-6.863-23.558H17.787v21.472h30.047V27.443z" fill="#ffae00"/>
<path d="M34.187 40.135v1.885h5.503c.229 0 .565.206.565.562c0 3.21-.402 4.722-2.093 4.722c-1.754 0-2.114-3.797-3.975-4.047v3.634h-2.941V43.25c-1.953.148-2.268 4.054-4.091 4.054c-1.69 0-2.001-1.512-2.001-4.722c0-.356.337-.562.565-.562h5.526v-1.885h-5.721a.593.593 0 1 1 0-1.189h5.721v-1.885h-6.439a.595.595 0 1 1 0-1.191h6.439v-1.883h-6.044a.595.595 0 0 1-.596-.596c0-.326.267-.597.596-.597h6.044v-1.882H26.51a.596.596 0 1 1 0-1.194h4.735v-1.041h2.941v1.041h4.735a.597.597 0 0 1 0 1.194h-4.735v1.881h6.062a.6.6 0 0 1 .597.597a.595.595 0 0 1-.597.596h-6.062v1.883h6.459a.595.595 0 1 1 0 1.191h-6.459v1.885h5.722a.595.595 0 1 1 0 1.189l-5.722.001z" fill="#ffae00"/>
<path d="M41.729 18.044H23.982c-3.211 0-6.182 1.713-7.853 4.268h33.194a8.905 8.905 0 0 0-7.594-4.268z" fill="#ffae00"/>
</g>
</svg>